M48
INCH
T10C0.035000
T11C0.025000
T12C0.038000
T13C0.032000
T14C0.015748
%
T10
X000545Y001503
X004545Y001503
X000545Y000503
X004545Y000503
X000545Y002503
X004545Y002503
X000545Y003503
X004545Y003503
X001545Y009503
X001545Y008503
T11
X008545Y003503
X007757Y003503
X006971Y003503
X006183Y003503
T12
X003545Y009503
X004545Y009503
T13
X004545Y004503
X003545Y004503
X002545Y004503
X001545Y004503
X001545Y007503
X002545Y007503
X003545Y007503
X004545Y007503
T14
X006911Y007452
T00
M30
