G04 MADE WITH FRITZING*
G04 WWW.FRITZING.ORG*
G04 DOUBLE SIDED*
G04 HOLES PLATED*
G04 CONTOUR ON CENTER OF CONTOUR VECTOR*
%ASAXBY*%
%FSLAX23Y23*%
%MOIN*%
%OFA0B0*%
%SFA1.0B1.0*%
%ADD10C,0.075000*%
%ADD11C,0.065000*%
%ADD12C,0.078000*%
%ADD13C,0.068000*%
%ADD14C,0.039370*%
%ADD15R,0.075000X0.075000*%
%ADD16R,0.078000X0.078000*%
%ADD17C,0.024000*%
%ADD18C,0.020000*%
%LNCOPPER0*%
G90*
G70*
G54D10*
X155Y850D03*
X155Y950D03*
G54D11*
X618Y350D03*
X697Y350D03*
X776Y350D03*
X855Y350D03*
G54D10*
X455Y350D03*
X55Y350D03*
X455Y250D03*
X55Y250D03*
X455Y50D03*
X55Y50D03*
X455Y150D03*
X55Y150D03*
G54D12*
X455Y950D03*
X355Y950D03*
G54D13*
X455Y750D03*
X355Y750D03*
X255Y750D03*
X155Y750D03*
X155Y450D03*
X255Y450D03*
X355Y450D03*
X455Y450D03*
G54D14*
X691Y745D03*
G54D15*
X455Y350D03*
G54D16*
X455Y950D03*
G54D17*
X435Y469D02*
X353Y551D01*
D02*
X353Y551D02*
X254Y551D01*
D02*
X254Y551D02*
X54Y551D01*
D02*
X54Y551D02*
X54Y850D01*
D02*
X54Y850D02*
X54Y949D01*
D02*
X54Y949D02*
X126Y950D01*
D02*
X611Y328D02*
X523Y73D01*
D02*
X523Y73D02*
X482Y59D01*
D02*
X77Y69D02*
X139Y121D01*
D02*
X139Y121D02*
X153Y423D01*
D02*
X855Y374D02*
X854Y451D01*
D02*
X854Y451D02*
X548Y446D01*
D02*
X548Y446D02*
X547Y289D01*
D02*
X547Y289D02*
X481Y261D01*
D02*
X354Y723D02*
X353Y650D01*
D02*
X353Y650D02*
X555Y650D01*
D02*
X555Y750D02*
X672Y746D01*
D02*
X555Y650D02*
X555Y750D01*
D02*
X325Y952D02*
X187Y961D01*
D02*
X187Y961D02*
X182Y959D01*
G54D18*
X127Y878D02*
X182Y878D01*
X182Y823D01*
X127Y823D01*
X127Y878D01*
D02*
X427Y223D02*
X427Y278D01*
X482Y278D01*
X482Y223D01*
X427Y223D01*
D02*
X427Y23D02*
X427Y78D01*
X482Y78D01*
X482Y23D01*
X427Y23D01*
D02*
X427Y123D02*
X427Y178D01*
X482Y178D01*
X482Y123D01*
X427Y123D01*
D02*
G04 End of Copper0*
M02*