M48
;DRILL file {Pcbnew (2013-mar-25)-stable} date Monday, December 09, 2013 'PMt' 08:04:36 PM
;FORMAT={-:-/ absolute / inch / decimal}
FMAT,2
INCH,TZ
T1C0.025
T2C0.032
T3C0.040
T4C0.120
%
G90
G05
M72
T1
X4.37Y-3.23
X4.48Y-2.6
X4.53Y-2.65
X4.6Y-3.19
X4.64Y-2.73
X4.64Y-3.24
T2
X4.35Y-1.95
X4.35Y-2.15
X4.35Y-2.26
X4.35Y-2.37
X4.35Y-2.47
X4.35Y-2.57
X4.35Y-2.67
X4.35Y-2.92
X4.35Y-3.01
X4.35Y-3.1
X4.35Y-3.38
X4.35Y-3.58
X4.65Y-1.95
X4.65Y-2.15
X4.65Y-2.26
X4.65Y-2.37
X4.65Y-2.47
X4.65Y-2.57
X4.65Y-2.67
X4.65Y-2.92
X4.65Y-3.01
X4.65Y-3.1
X4.65Y-3.38
X4.65Y-3.58
T3
X4.37Y-2.8
X4.44Y-1.86
X4.45Y-2.8
X4.55Y-2.8
X4.56Y-1.86
X4.63Y-2.8
T4
X4.5Y-3.23
T0
M30
