G04 (created by PCBNEW (2013-mar-25)-stable) date Friday, November 01, 2013 'AMt' 01:52:15 AM*
%MOIN*%
G04 Gerber Fmt 3.4, Leading zero omitted, Abs format*
%FSLAX34Y34*%
G01*
G70*
G90*
G04 APERTURE LIST*
%ADD10C,0.006*%
%ADD11C,0.13*%
%ADD12C,0.055*%
%ADD13C,0.0394*%
%ADD14R,0.055X0.055*%
%ADD15C,0.045*%
%ADD16C,0.035*%
%ADD17C,0.01*%
G04 APERTURE END LIST*
G54D10*
G54D11*
X45000Y-32300D03*
G54D12*
X43500Y-31000D03*
X46500Y-31000D03*
X43500Y-35800D03*
X43500Y-33800D03*
X46500Y-35800D03*
X46500Y-33800D03*
X46500Y-29200D03*
X43500Y-29200D03*
X46500Y-30100D03*
X43500Y-30100D03*
X43500Y-22600D03*
X46500Y-22600D03*
G54D13*
X44250Y-28000D03*
X44750Y-28000D03*
X45250Y-28000D03*
X45750Y-28000D03*
G54D14*
X43500Y-23700D03*
G54D12*
X43500Y-24700D03*
X43500Y-25700D03*
X43500Y-26700D03*
X46500Y-26700D03*
X46500Y-25700D03*
X46500Y-24700D03*
X46500Y-23700D03*
G54D15*
X45600Y-18600D03*
X44400Y-18600D03*
G54D12*
X46500Y-19500D03*
X46500Y-21500D03*
X43500Y-19500D03*
X43500Y-21500D03*
G54D16*
X44000Y-32700D03*
X43500Y-31800D03*
X43600Y-28300D03*
X43600Y-27400D03*
X45500Y-26500D03*
X46500Y-27500D03*
X46000Y-31900D03*
G54D17*
X44000Y-32700D02*
X44000Y-34000D01*
X44000Y-34000D02*
X43900Y-34100D01*
X43900Y-34100D02*
X43900Y-34200D01*
X43900Y-34200D02*
X43500Y-34600D01*
X43500Y-34600D02*
X43500Y-35800D01*
X43500Y-26700D02*
X43600Y-26700D01*
X43600Y-26700D02*
X44800Y-27900D01*
X44800Y-27900D02*
X44800Y-28000D01*
X44800Y-28000D02*
X44750Y-28000D01*
X43500Y-26700D02*
X44300Y-25900D01*
X44300Y-25900D02*
X44300Y-22300D01*
X44300Y-22300D02*
X44200Y-22200D01*
X44200Y-22200D02*
X44200Y-22100D01*
X44200Y-22100D02*
X44000Y-21900D01*
X44000Y-21900D02*
X44000Y-21300D01*
X44000Y-21300D02*
X43900Y-21200D01*
X43900Y-21200D02*
X43900Y-21100D01*
X43900Y-21100D02*
X43500Y-20700D01*
X43500Y-20700D02*
X43500Y-19500D01*
X43500Y-19500D02*
X44300Y-18700D01*
X44300Y-18700D02*
X44300Y-18600D01*
X43500Y-29200D02*
X44300Y-28400D01*
X44300Y-28400D02*
X44300Y-28000D01*
X44300Y-28000D02*
X44250Y-28000D01*
X46500Y-30100D02*
X46000Y-29600D01*
X46000Y-29600D02*
X46000Y-29000D01*
X46000Y-29000D02*
X46100Y-28900D01*
X46100Y-28900D02*
X46100Y-27700D01*
X46100Y-27700D02*
X46000Y-27600D01*
X46000Y-27600D02*
X46000Y-26500D01*
X46000Y-26500D02*
X46100Y-26400D01*
X46100Y-26400D02*
X46100Y-26300D01*
X46100Y-26300D02*
X46500Y-25900D01*
X46500Y-25900D02*
X46500Y-25700D01*
X43500Y-22600D02*
X43500Y-23700D01*
X45600Y-18600D02*
X46000Y-19000D01*
X46000Y-19000D02*
X46000Y-21700D01*
X46000Y-21700D02*
X46100Y-21800D01*
X46100Y-21800D02*
X46100Y-21900D01*
X46100Y-21900D02*
X46500Y-22300D01*
X46500Y-22300D02*
X46500Y-22600D01*
X46500Y-22600D02*
X46500Y-23700D01*
X43500Y-33800D02*
X43500Y-31800D01*
X43600Y-28300D02*
X43600Y-27400D01*
X45250Y-28000D02*
X45300Y-28000D01*
X45300Y-28000D02*
X45100Y-28200D01*
X45100Y-28200D02*
X45100Y-28300D01*
X45100Y-28300D02*
X43900Y-29500D01*
X43900Y-29500D02*
X43900Y-29600D01*
X43900Y-29600D02*
X43500Y-30000D01*
X43500Y-30000D02*
X43500Y-30100D01*
X45750Y-28000D02*
X45800Y-28000D01*
X45800Y-28000D02*
X45700Y-28100D01*
X45700Y-28100D02*
X45700Y-29700D01*
X45700Y-29700D02*
X46000Y-30000D01*
X46000Y-30000D02*
X46000Y-30300D01*
X46000Y-30300D02*
X46100Y-30400D01*
X46100Y-30400D02*
X46100Y-30500D01*
X46100Y-30500D02*
X46500Y-30900D01*
X46500Y-30900D02*
X46500Y-31000D01*
X43500Y-25700D02*
X44000Y-25200D01*
X44000Y-25200D02*
X44000Y-22400D01*
X44000Y-22400D02*
X43900Y-22300D01*
X43900Y-22300D02*
X43900Y-22200D01*
X43900Y-22200D02*
X43500Y-21800D01*
X43500Y-21800D02*
X43500Y-21500D01*
X46500Y-24700D02*
X45500Y-25700D01*
X45500Y-25700D02*
X45500Y-26500D01*
X46500Y-27500D02*
X46500Y-29200D01*
X46000Y-31900D02*
X45900Y-31900D01*
X45900Y-31900D02*
X45600Y-31600D01*
X45600Y-31600D02*
X45500Y-31600D01*
X45500Y-31600D02*
X45400Y-31500D01*
X45400Y-31500D02*
X44000Y-31500D01*
X44000Y-31500D02*
X43500Y-31000D01*
M02*
