M48
;DRILL file {Pcbnew (2013-mar-25)-stable} date Monday, September 30, 2013 05:41:23 PM
;FORMAT={-:-/ absolute / inch / decimal}
FMAT,2
INCH,TZ
T1C0.025
T2C0.028
T3C0.032
T4C0.032
%
G90
G05
M72
T1
X5.Y-2.875
X5.125Y-2.875
T2
X5.3Y-2.1
X5.35Y-2.1
X5.4Y-2.1
X5.45Y-2.1
T3
X5.075Y-2.1
X5.075Y-2.25
T4
X4.925Y-2.4
X4.925Y-2.525
X4.925Y-2.65
X4.925Y-2.775
X5.225Y-2.4
X5.225Y-2.525
X5.225Y-2.65
X5.225Y-2.775
X5.325Y-2.25
X5.325Y-2.55
X5.35Y-2.675
X5.35Y-2.875
X5.425Y-2.25
X5.425Y-2.55
X5.525Y-2.25
X5.525Y-2.55
X5.625Y-2.25
X5.625Y-2.55
X5.65Y-2.675
X5.65Y-2.875
T0
M30
