G04 (created by PCBNEW (2013-mar-25)-stable) date Monday, September 30, 2013 05:41:20 PM*
%MOIN*%
G04 Gerber Fmt 3.4, Leading zero omitted, Abs format*
%FSLAX34Y34*%
G01*
G70*
G90*
G04 APERTURE LIST*
%ADD10C,0.006*%
%ADD11C,0.055*%
%ADD12C,0.0394*%
%ADD13R,0.0787X0.0787*%
%ADD14C,0.0787*%
%ADD15R,0.055X0.055*%
%ADD16C,0.045*%
%ADD17C,0.01*%
G04 APERTURE END LIST*
G54D10*
G54D11*
X56500Y-26750D03*
X56500Y-28750D03*
X53500Y-26750D03*
X53500Y-28750D03*
X52250Y-25250D03*
X49250Y-25250D03*
X52250Y-24000D03*
X49250Y-24000D03*
X52250Y-26500D03*
X49250Y-26500D03*
X52250Y-27750D03*
X49250Y-27750D03*
G54D12*
X54500Y-21000D03*
X54000Y-21000D03*
X53500Y-21000D03*
X53000Y-21000D03*
G54D13*
X50750Y-22500D03*
G54D14*
X50750Y-21000D03*
G54D15*
X53250Y-25500D03*
G54D11*
X54250Y-25500D03*
X55250Y-25500D03*
X56250Y-25500D03*
X56250Y-22500D03*
X55250Y-22500D03*
X54250Y-22500D03*
X53250Y-22500D03*
G54D16*
X50000Y-28750D03*
X51250Y-28750D03*
G54D17*
X54000Y-21000D02*
X54000Y-20750D01*
X54000Y-20750D02*
X53750Y-20500D01*
X53750Y-20500D02*
X52750Y-20500D01*
X52750Y-20500D02*
X52250Y-21000D01*
X52250Y-21000D02*
X50750Y-21000D01*
X53500Y-26750D02*
X56500Y-26750D01*
X49250Y-24000D02*
X49250Y-22750D01*
X49250Y-22750D02*
X50000Y-22000D01*
X50000Y-22000D02*
X50000Y-21750D01*
X50000Y-21750D02*
X51000Y-21750D01*
X51000Y-21750D02*
X51250Y-21500D01*
X51250Y-21500D02*
X52500Y-21500D01*
X52500Y-21500D02*
X53000Y-21000D01*
X49250Y-26500D02*
X49250Y-26250D01*
X49250Y-26250D02*
X49750Y-25750D01*
X49750Y-25750D02*
X49750Y-25500D01*
X49750Y-25500D02*
X52250Y-23000D01*
X52250Y-23000D02*
X53750Y-23000D01*
X53750Y-23000D02*
X53750Y-21500D01*
X53750Y-21500D02*
X53500Y-21250D01*
X53500Y-21250D02*
X53500Y-21000D01*
X56500Y-28750D02*
X53500Y-28750D01*
X50750Y-22500D02*
X53250Y-22500D01*
X56250Y-22500D02*
X54250Y-24500D01*
X54250Y-24500D02*
X52250Y-24500D01*
X52250Y-24500D02*
X52000Y-24750D01*
X52000Y-24750D02*
X51750Y-24750D01*
X51750Y-24750D02*
X51750Y-26000D01*
X51750Y-26000D02*
X52250Y-26500D01*
X55250Y-22500D02*
X53750Y-24000D01*
X53750Y-24000D02*
X52250Y-24000D01*
X52250Y-25250D02*
X52500Y-25000D01*
X52500Y-25000D02*
X54750Y-25000D01*
X54750Y-25000D02*
X55250Y-25500D01*
G54D10*
G36*
X54053Y-20971D02*
X54052Y-21028D01*
X54005Y-21076D01*
X54000Y-21070D01*
X53994Y-21076D01*
X53946Y-21028D01*
X53947Y-20971D01*
X53994Y-20923D01*
X54000Y-20929D01*
X54005Y-20923D01*
X54053Y-20971D01*
X54053Y-20971D01*
G37*
G54D17*
X54053Y-20971D02*
X54052Y-21028D01*
X54005Y-21076D01*
X54000Y-21070D01*
X53994Y-21076D01*
X53946Y-21028D01*
X53947Y-20971D01*
X53994Y-20923D01*
X54000Y-20929D01*
X54005Y-20923D01*
X54053Y-20971D01*
G54D10*
G36*
X56720Y-22263D02*
X56695Y-22203D01*
X56547Y-22055D01*
X56354Y-21975D01*
X56146Y-21974D01*
X55953Y-22054D01*
X55805Y-22202D01*
X55749Y-22335D01*
X55695Y-22203D01*
X55547Y-22055D01*
X55354Y-21975D01*
X55146Y-21974D01*
X54953Y-22054D01*
X54805Y-22202D01*
X54749Y-22335D01*
X54695Y-22203D01*
X54547Y-22055D01*
X54354Y-21975D01*
X54146Y-21974D01*
X54050Y-22014D01*
X54050Y-21500D01*
X54039Y-21445D01*
X54120Y-21439D01*
X54225Y-21395D01*
X54231Y-21363D01*
X54246Y-21378D01*
X54410Y-21446D01*
X54588Y-21447D01*
X54752Y-21379D01*
X54878Y-21253D01*
X54946Y-21089D01*
X54947Y-20911D01*
X54879Y-20747D01*
X54753Y-20621D01*
X54589Y-20553D01*
X54411Y-20552D01*
X54247Y-20620D01*
X54231Y-20636D01*
X54225Y-20604D01*
X54057Y-20547D01*
X53879Y-20560D01*
X53774Y-20604D01*
X53768Y-20636D01*
X53753Y-20621D01*
X53589Y-20553D01*
X53411Y-20552D01*
X53249Y-20619D01*
X53089Y-20553D01*
X52911Y-20552D01*
X52747Y-20620D01*
X52621Y-20746D01*
X52553Y-20910D01*
X52552Y-21022D01*
X52375Y-21200D01*
X51362Y-21200D01*
X51397Y-21104D01*
X51388Y-20848D01*
X51308Y-20655D01*
X51203Y-20617D01*
X51132Y-20687D01*
X51132Y-20546D01*
X51094Y-20441D01*
X50854Y-20352D01*
X50598Y-20361D01*
X50405Y-20441D01*
X50367Y-20546D01*
X50750Y-20929D01*
X51132Y-20546D01*
X51132Y-20687D01*
X50820Y-21000D01*
X50826Y-21005D01*
X50755Y-21076D01*
X50750Y-21070D01*
X50744Y-21076D01*
X50679Y-21011D01*
X50673Y-21005D01*
X50679Y-21000D01*
X50296Y-20617D01*
X50191Y-20655D01*
X50102Y-20895D01*
X50111Y-21151D01*
X50191Y-21344D01*
X50296Y-21382D01*
X50251Y-21427D01*
X50273Y-21450D01*
X50000Y-21450D01*
X49885Y-21472D01*
X49787Y-21537D01*
X49722Y-21635D01*
X49700Y-21750D01*
X49700Y-21875D01*
X49037Y-22537D01*
X49029Y-22550D01*
X49029Y-20029D01*
X56720Y-20029D01*
X56720Y-22263D01*
X56720Y-22263D01*
G37*
G54D17*
X56720Y-22263D02*
X56695Y-22203D01*
X56547Y-22055D01*
X56354Y-21975D01*
X56146Y-21974D01*
X55953Y-22054D01*
X55805Y-22202D01*
X55749Y-22335D01*
X55695Y-22203D01*
X55547Y-22055D01*
X55354Y-21975D01*
X55146Y-21974D01*
X54953Y-22054D01*
X54805Y-22202D01*
X54749Y-22335D01*
X54695Y-22203D01*
X54547Y-22055D01*
X54354Y-21975D01*
X54146Y-21974D01*
X54050Y-22014D01*
X54050Y-21500D01*
X54039Y-21445D01*
X54120Y-21439D01*
X54225Y-21395D01*
X54231Y-21363D01*
X54246Y-21378D01*
X54410Y-21446D01*
X54588Y-21447D01*
X54752Y-21379D01*
X54878Y-21253D01*
X54946Y-21089D01*
X54947Y-20911D01*
X54879Y-20747D01*
X54753Y-20621D01*
X54589Y-20553D01*
X54411Y-20552D01*
X54247Y-20620D01*
X54231Y-20636D01*
X54225Y-20604D01*
X54057Y-20547D01*
X53879Y-20560D01*
X53774Y-20604D01*
X53768Y-20636D01*
X53753Y-20621D01*
X53589Y-20553D01*
X53411Y-20552D01*
X53249Y-20619D01*
X53089Y-20553D01*
X52911Y-20552D01*
X52747Y-20620D01*
X52621Y-20746D01*
X52553Y-20910D01*
X52552Y-21022D01*
X52375Y-21200D01*
X51362Y-21200D01*
X51397Y-21104D01*
X51388Y-20848D01*
X51308Y-20655D01*
X51203Y-20617D01*
X51132Y-20687D01*
X51132Y-20546D01*
X51094Y-20441D01*
X50854Y-20352D01*
X50598Y-20361D01*
X50405Y-20441D01*
X50367Y-20546D01*
X50750Y-20929D01*
X51132Y-20546D01*
X51132Y-20687D01*
X50820Y-21000D01*
X50826Y-21005D01*
X50755Y-21076D01*
X50750Y-21070D01*
X50744Y-21076D01*
X50679Y-21011D01*
X50673Y-21005D01*
X50679Y-21000D01*
X50296Y-20617D01*
X50191Y-20655D01*
X50102Y-20895D01*
X50111Y-21151D01*
X50191Y-21344D01*
X50296Y-21382D01*
X50251Y-21427D01*
X50273Y-21450D01*
X50000Y-21450D01*
X49885Y-21472D01*
X49787Y-21537D01*
X49722Y-21635D01*
X49700Y-21750D01*
X49700Y-21875D01*
X49037Y-22537D01*
X49029Y-22550D01*
X49029Y-20029D01*
X56720Y-20029D01*
X56720Y-22263D01*
G54D10*
G36*
X56720Y-28273D02*
X56604Y-28225D01*
X56396Y-28224D01*
X56203Y-28304D01*
X56057Y-28450D01*
X54029Y-28450D01*
X54029Y-26825D01*
X54018Y-26617D01*
X53960Y-26477D01*
X53867Y-26452D01*
X53797Y-26523D01*
X53797Y-26382D01*
X53772Y-26289D01*
X53575Y-26220D01*
X53367Y-26231D01*
X53227Y-26289D01*
X53202Y-26382D01*
X53500Y-26679D01*
X53797Y-26382D01*
X53797Y-26523D01*
X53570Y-26750D01*
X53867Y-27047D01*
X53960Y-27022D01*
X54029Y-26825D01*
X54029Y-28450D01*
X53942Y-28450D01*
X53797Y-28305D01*
X53797Y-28304D01*
X53797Y-27117D01*
X53500Y-26820D01*
X53429Y-26891D01*
X53429Y-26750D01*
X53132Y-26452D01*
X53039Y-26477D01*
X52970Y-26674D01*
X52981Y-26882D01*
X53039Y-27022D01*
X53132Y-27047D01*
X53429Y-26750D01*
X53429Y-26891D01*
X53202Y-27117D01*
X53227Y-27210D01*
X53424Y-27279D01*
X53632Y-27268D01*
X53772Y-27210D01*
X53797Y-27117D01*
X53797Y-28304D01*
X53604Y-28225D01*
X53396Y-28224D01*
X53203Y-28304D01*
X53055Y-28452D01*
X52975Y-28645D01*
X52974Y-28853D01*
X53054Y-29047D01*
X53202Y-29194D01*
X53264Y-29220D01*
X52775Y-29220D01*
X52775Y-27646D01*
X52695Y-27453D01*
X52547Y-27305D01*
X52354Y-27225D01*
X52146Y-27224D01*
X51953Y-27304D01*
X51805Y-27452D01*
X51725Y-27645D01*
X51724Y-27853D01*
X51804Y-28047D01*
X51952Y-28194D01*
X52145Y-28274D01*
X52353Y-28275D01*
X52547Y-28195D01*
X52694Y-28047D01*
X52774Y-27854D01*
X52775Y-27646D01*
X52775Y-29220D01*
X51730Y-29220D01*
X51730Y-28813D01*
X51717Y-28625D01*
X51669Y-28507D01*
X51581Y-28489D01*
X51510Y-28559D01*
X51510Y-28418D01*
X51492Y-28330D01*
X51313Y-28269D01*
X51125Y-28282D01*
X51007Y-28330D01*
X50989Y-28418D01*
X51250Y-28679D01*
X51510Y-28418D01*
X51510Y-28559D01*
X51320Y-28750D01*
X51581Y-29010D01*
X51669Y-28992D01*
X51730Y-28813D01*
X51730Y-29220D01*
X51335Y-29220D01*
X51374Y-29217D01*
X51492Y-29169D01*
X51510Y-29081D01*
X51250Y-28820D01*
X51179Y-28891D01*
X51179Y-28750D01*
X50918Y-28489D01*
X50830Y-28507D01*
X50769Y-28686D01*
X50782Y-28874D01*
X50830Y-28992D01*
X50918Y-29010D01*
X51179Y-28750D01*
X51179Y-28891D01*
X50989Y-29081D01*
X51007Y-29169D01*
X51157Y-29220D01*
X50105Y-29220D01*
X50268Y-29152D01*
X50402Y-29019D01*
X50474Y-28844D01*
X50475Y-28655D01*
X50402Y-28481D01*
X50269Y-28347D01*
X50094Y-28275D01*
X49905Y-28274D01*
X49731Y-28347D01*
X49597Y-28480D01*
X49525Y-28655D01*
X49524Y-28844D01*
X49597Y-29018D01*
X49730Y-29152D01*
X49894Y-29220D01*
X49029Y-29220D01*
X49029Y-28226D01*
X49145Y-28274D01*
X49353Y-28275D01*
X49547Y-28195D01*
X49694Y-28047D01*
X49774Y-27854D01*
X49775Y-27646D01*
X49695Y-27453D01*
X49547Y-27305D01*
X49354Y-27225D01*
X49146Y-27224D01*
X49029Y-27273D01*
X49029Y-26976D01*
X49145Y-27024D01*
X49353Y-27025D01*
X49547Y-26945D01*
X49694Y-26797D01*
X49774Y-26604D01*
X49775Y-26396D01*
X49702Y-26221D01*
X49962Y-25962D01*
X49962Y-25962D01*
X50027Y-25864D01*
X50049Y-25750D01*
X50050Y-25750D01*
X50050Y-25624D01*
X51725Y-23949D01*
X51724Y-24103D01*
X51804Y-24297D01*
X51916Y-24409D01*
X51875Y-24450D01*
X51750Y-24450D01*
X51635Y-24472D01*
X51537Y-24537D01*
X51472Y-24635D01*
X51450Y-24750D01*
X51450Y-26000D01*
X51472Y-26114D01*
X51537Y-26212D01*
X51725Y-26399D01*
X51724Y-26603D01*
X51804Y-26797D01*
X51952Y-26944D01*
X52145Y-27024D01*
X52353Y-27025D01*
X52547Y-26945D01*
X52694Y-26797D01*
X52774Y-26604D01*
X52775Y-26396D01*
X52695Y-26203D01*
X52547Y-26055D01*
X52354Y-25975D01*
X52149Y-25974D01*
X52050Y-25875D01*
X52050Y-25735D01*
X52145Y-25774D01*
X52353Y-25775D01*
X52547Y-25695D01*
X52694Y-25547D01*
X52724Y-25475D01*
X52724Y-25824D01*
X52762Y-25916D01*
X52833Y-25986D01*
X52925Y-26024D01*
X53024Y-26025D01*
X53574Y-26025D01*
X53666Y-25987D01*
X53736Y-25916D01*
X53774Y-25824D01*
X53775Y-25725D01*
X53775Y-25725D01*
X53804Y-25797D01*
X53952Y-25944D01*
X54145Y-26024D01*
X54353Y-26025D01*
X54547Y-25945D01*
X54694Y-25797D01*
X54750Y-25664D01*
X54804Y-25797D01*
X54952Y-25944D01*
X55145Y-26024D01*
X55353Y-26025D01*
X55547Y-25945D01*
X55694Y-25797D01*
X55747Y-25671D01*
X55789Y-25772D01*
X55882Y-25797D01*
X56179Y-25500D01*
X55882Y-25202D01*
X55789Y-25227D01*
X55750Y-25337D01*
X55695Y-25203D01*
X55547Y-25055D01*
X55354Y-24975D01*
X55149Y-24974D01*
X54962Y-24787D01*
X54864Y-24722D01*
X54750Y-24700D01*
X54474Y-24700D01*
X56149Y-23024D01*
X56353Y-23025D01*
X56547Y-22945D01*
X56694Y-22797D01*
X56720Y-22735D01*
X56720Y-25251D01*
X56710Y-25227D01*
X56617Y-25202D01*
X56547Y-25273D01*
X56547Y-25132D01*
X56522Y-25039D01*
X56325Y-24970D01*
X56117Y-24981D01*
X55977Y-25039D01*
X55952Y-25132D01*
X56250Y-25429D01*
X56547Y-25132D01*
X56547Y-25273D01*
X56320Y-25500D01*
X56617Y-25797D01*
X56710Y-25772D01*
X56720Y-25744D01*
X56720Y-26271D01*
X56575Y-26220D01*
X56547Y-26221D01*
X56547Y-25867D01*
X56250Y-25570D01*
X55952Y-25867D01*
X55977Y-25960D01*
X56174Y-26029D01*
X56382Y-26018D01*
X56522Y-25960D01*
X56547Y-25867D01*
X56547Y-26221D01*
X56367Y-26231D01*
X56227Y-26289D01*
X56202Y-26382D01*
X56500Y-26679D01*
X56505Y-26673D01*
X56576Y-26744D01*
X56570Y-26750D01*
X56576Y-26755D01*
X56505Y-26826D01*
X56500Y-26820D01*
X56429Y-26891D01*
X56429Y-26750D01*
X56132Y-26452D01*
X56039Y-26477D01*
X55970Y-26674D01*
X55981Y-26882D01*
X56039Y-27022D01*
X56132Y-27047D01*
X56429Y-26750D01*
X56429Y-26891D01*
X56202Y-27117D01*
X56227Y-27210D01*
X56424Y-27279D01*
X56632Y-27268D01*
X56720Y-27232D01*
X56720Y-28273D01*
X56720Y-28273D01*
G37*
G54D17*
X56720Y-28273D02*
X56604Y-28225D01*
X56396Y-28224D01*
X56203Y-28304D01*
X56057Y-28450D01*
X54029Y-28450D01*
X54029Y-26825D01*
X54018Y-26617D01*
X53960Y-26477D01*
X53867Y-26452D01*
X53797Y-26523D01*
X53797Y-26382D01*
X53772Y-26289D01*
X53575Y-26220D01*
X53367Y-26231D01*
X53227Y-26289D01*
X53202Y-26382D01*
X53500Y-26679D01*
X53797Y-26382D01*
X53797Y-26523D01*
X53570Y-26750D01*
X53867Y-27047D01*
X53960Y-27022D01*
X54029Y-26825D01*
X54029Y-28450D01*
X53942Y-28450D01*
X53797Y-28305D01*
X53797Y-28304D01*
X53797Y-27117D01*
X53500Y-26820D01*
X53429Y-26891D01*
X53429Y-26750D01*
X53132Y-26452D01*
X53039Y-26477D01*
X52970Y-26674D01*
X52981Y-26882D01*
X53039Y-27022D01*
X53132Y-27047D01*
X53429Y-26750D01*
X53429Y-26891D01*
X53202Y-27117D01*
X53227Y-27210D01*
X53424Y-27279D01*
X53632Y-27268D01*
X53772Y-27210D01*
X53797Y-27117D01*
X53797Y-28304D01*
X53604Y-28225D01*
X53396Y-28224D01*
X53203Y-28304D01*
X53055Y-28452D01*
X52975Y-28645D01*
X52974Y-28853D01*
X53054Y-29047D01*
X53202Y-29194D01*
X53264Y-29220D01*
X52775Y-29220D01*
X52775Y-27646D01*
X52695Y-27453D01*
X52547Y-27305D01*
X52354Y-27225D01*
X52146Y-27224D01*
X51953Y-27304D01*
X51805Y-27452D01*
X51725Y-27645D01*
X51724Y-27853D01*
X51804Y-28047D01*
X51952Y-28194D01*
X52145Y-28274D01*
X52353Y-28275D01*
X52547Y-28195D01*
X52694Y-28047D01*
X52774Y-27854D01*
X52775Y-27646D01*
X52775Y-29220D01*
X51730Y-29220D01*
X51730Y-28813D01*
X51717Y-28625D01*
X51669Y-28507D01*
X51581Y-28489D01*
X51510Y-28559D01*
X51510Y-28418D01*
X51492Y-28330D01*
X51313Y-28269D01*
X51125Y-28282D01*
X51007Y-28330D01*
X50989Y-28418D01*
X51250Y-28679D01*
X51510Y-28418D01*
X51510Y-28559D01*
X51320Y-28750D01*
X51581Y-29010D01*
X51669Y-28992D01*
X51730Y-28813D01*
X51730Y-29220D01*
X51335Y-29220D01*
X51374Y-29217D01*
X51492Y-29169D01*
X51510Y-29081D01*
X51250Y-28820D01*
X51179Y-28891D01*
X51179Y-28750D01*
X50918Y-28489D01*
X50830Y-28507D01*
X50769Y-28686D01*
X50782Y-28874D01*
X50830Y-28992D01*
X50918Y-29010D01*
X51179Y-28750D01*
X51179Y-28891D01*
X50989Y-29081D01*
X51007Y-29169D01*
X51157Y-29220D01*
X50105Y-29220D01*
X50268Y-29152D01*
X50402Y-29019D01*
X50474Y-28844D01*
X50475Y-28655D01*
X50402Y-28481D01*
X50269Y-28347D01*
X50094Y-28275D01*
X49905Y-28274D01*
X49731Y-28347D01*
X49597Y-28480D01*
X49525Y-28655D01*
X49524Y-28844D01*
X49597Y-29018D01*
X49730Y-29152D01*
X49894Y-29220D01*
X49029Y-29220D01*
X49029Y-28226D01*
X49145Y-28274D01*
X49353Y-28275D01*
X49547Y-28195D01*
X49694Y-28047D01*
X49774Y-27854D01*
X49775Y-27646D01*
X49695Y-27453D01*
X49547Y-27305D01*
X49354Y-27225D01*
X49146Y-27224D01*
X49029Y-27273D01*
X49029Y-26976D01*
X49145Y-27024D01*
X49353Y-27025D01*
X49547Y-26945D01*
X49694Y-26797D01*
X49774Y-26604D01*
X49775Y-26396D01*
X49702Y-26221D01*
X49962Y-25962D01*
X49962Y-25962D01*
X50027Y-25864D01*
X50049Y-25750D01*
X50050Y-25750D01*
X50050Y-25624D01*
X51725Y-23949D01*
X51724Y-24103D01*
X51804Y-24297D01*
X51916Y-24409D01*
X51875Y-24450D01*
X51750Y-24450D01*
X51635Y-24472D01*
X51537Y-24537D01*
X51472Y-24635D01*
X51450Y-24750D01*
X51450Y-26000D01*
X51472Y-26114D01*
X51537Y-26212D01*
X51725Y-26399D01*
X51724Y-26603D01*
X51804Y-26797D01*
X51952Y-26944D01*
X52145Y-27024D01*
X52353Y-27025D01*
X52547Y-26945D01*
X52694Y-26797D01*
X52774Y-26604D01*
X52775Y-26396D01*
X52695Y-26203D01*
X52547Y-26055D01*
X52354Y-25975D01*
X52149Y-25974D01*
X52050Y-25875D01*
X52050Y-25735D01*
X52145Y-25774D01*
X52353Y-25775D01*
X52547Y-25695D01*
X52694Y-25547D01*
X52724Y-25475D01*
X52724Y-25824D01*
X52762Y-25916D01*
X52833Y-25986D01*
X52925Y-26024D01*
X53024Y-26025D01*
X53574Y-26025D01*
X53666Y-25987D01*
X53736Y-25916D01*
X53774Y-25824D01*
X53775Y-25725D01*
X53775Y-25725D01*
X53804Y-25797D01*
X53952Y-25944D01*
X54145Y-26024D01*
X54353Y-26025D01*
X54547Y-25945D01*
X54694Y-25797D01*
X54750Y-25664D01*
X54804Y-25797D01*
X54952Y-25944D01*
X55145Y-26024D01*
X55353Y-26025D01*
X55547Y-25945D01*
X55694Y-25797D01*
X55747Y-25671D01*
X55789Y-25772D01*
X55882Y-25797D01*
X56179Y-25500D01*
X55882Y-25202D01*
X55789Y-25227D01*
X55750Y-25337D01*
X55695Y-25203D01*
X55547Y-25055D01*
X55354Y-24975D01*
X55149Y-24974D01*
X54962Y-24787D01*
X54864Y-24722D01*
X54750Y-24700D01*
X54474Y-24700D01*
X56149Y-23024D01*
X56353Y-23025D01*
X56547Y-22945D01*
X56694Y-22797D01*
X56720Y-22735D01*
X56720Y-25251D01*
X56710Y-25227D01*
X56617Y-25202D01*
X56547Y-25273D01*
X56547Y-25132D01*
X56522Y-25039D01*
X56325Y-24970D01*
X56117Y-24981D01*
X55977Y-25039D01*
X55952Y-25132D01*
X56250Y-25429D01*
X56547Y-25132D01*
X56547Y-25273D01*
X56320Y-25500D01*
X56617Y-25797D01*
X56710Y-25772D01*
X56720Y-25744D01*
X56720Y-26271D01*
X56575Y-26220D01*
X56547Y-26221D01*
X56547Y-25867D01*
X56250Y-25570D01*
X55952Y-25867D01*
X55977Y-25960D01*
X56174Y-26029D01*
X56382Y-26018D01*
X56522Y-25960D01*
X56547Y-25867D01*
X56547Y-26221D01*
X56367Y-26231D01*
X56227Y-26289D01*
X56202Y-26382D01*
X56500Y-26679D01*
X56505Y-26673D01*
X56576Y-26744D01*
X56570Y-26750D01*
X56576Y-26755D01*
X56505Y-26826D01*
X56500Y-26820D01*
X56429Y-26891D01*
X56429Y-26750D01*
X56132Y-26452D01*
X56039Y-26477D01*
X55970Y-26674D01*
X55981Y-26882D01*
X56039Y-27022D01*
X56132Y-27047D01*
X56429Y-26750D01*
X56429Y-26891D01*
X56202Y-27117D01*
X56227Y-27210D01*
X56424Y-27279D01*
X56632Y-27268D01*
X56720Y-27232D01*
X56720Y-28273D01*
M02*
