G04 (created by PCBNEW (2013-mar-25)-stable) date Monday, September 30, 2013 02:43:07 PM*
%MOIN*%
G04 Gerber Fmt 3.4, Leading zero omitted, Abs format*
%FSLAX34Y34*%
G01*
G70*
G90*
G04 APERTURE LIST*
%ADD10C,0.006*%
%ADD11C,0.005*%
%ADD12C,0.00984252*%
%ADD13C,0.008*%
%ADD14C,0.015*%
%ADD15C,0.01*%
G04 APERTURE END LIST*
G54D10*
G54D11*
X55580Y-21833D02*
X55380Y-21833D01*
X55380Y-21757D01*
X55390Y-21738D01*
X55400Y-21728D01*
X55419Y-21719D01*
X55447Y-21719D01*
X55466Y-21728D01*
X55476Y-21738D01*
X55485Y-21757D01*
X55485Y-21833D01*
X55580Y-21547D02*
X55476Y-21547D01*
X55457Y-21557D01*
X55447Y-21576D01*
X55447Y-21614D01*
X55457Y-21633D01*
X55571Y-21547D02*
X55580Y-21566D01*
X55580Y-21614D01*
X55571Y-21633D01*
X55552Y-21642D01*
X55533Y-21642D01*
X55514Y-21633D01*
X55504Y-21614D01*
X55504Y-21566D01*
X55495Y-21547D01*
X55447Y-21480D02*
X55447Y-21404D01*
X55380Y-21452D02*
X55552Y-21452D01*
X55571Y-21442D01*
X55580Y-21423D01*
X55580Y-21404D01*
X55580Y-21309D02*
X55571Y-21328D01*
X55561Y-21338D01*
X55542Y-21347D01*
X55485Y-21347D01*
X55466Y-21338D01*
X55457Y-21328D01*
X55447Y-21309D01*
X55447Y-21280D01*
X55457Y-21261D01*
X55466Y-21252D01*
X55485Y-21242D01*
X55542Y-21242D01*
X55561Y-21252D01*
X55571Y-21261D01*
X55580Y-21280D01*
X55580Y-21309D01*
X55504Y-21004D02*
X55504Y-20852D01*
X55580Y-20928D02*
X55428Y-20928D01*
X55380Y-20623D02*
X55580Y-20576D01*
X55438Y-20538D01*
X55580Y-20499D01*
X55380Y-20452D01*
X55580Y-20376D02*
X55447Y-20376D01*
X55380Y-20376D02*
X55390Y-20385D01*
X55400Y-20376D01*
X55390Y-20366D01*
X55380Y-20376D01*
X55400Y-20376D01*
X55580Y-20252D02*
X55571Y-20271D01*
X55552Y-20280D01*
X55380Y-20280D01*
X55580Y-20147D02*
X55571Y-20166D01*
X55552Y-20176D01*
X55380Y-20176D01*
X55910Y-21676D02*
X55910Y-21771D01*
X55710Y-21771D01*
X55806Y-21609D02*
X55806Y-21542D01*
X55910Y-21514D02*
X55910Y-21609D01*
X55710Y-21609D01*
X55710Y-21514D01*
X55910Y-21428D02*
X55710Y-21428D01*
X55710Y-21380D01*
X55720Y-21352D01*
X55739Y-21333D01*
X55758Y-21323D01*
X55796Y-21314D01*
X55825Y-21314D01*
X55863Y-21323D01*
X55882Y-21333D01*
X55901Y-21352D01*
X55910Y-21380D01*
X55910Y-21428D01*
X55901Y-21085D02*
X55910Y-21057D01*
X55910Y-21009D01*
X55901Y-20990D01*
X55891Y-20980D01*
X55872Y-20971D01*
X55853Y-20971D01*
X55834Y-20980D01*
X55825Y-20990D01*
X55815Y-21009D01*
X55806Y-21047D01*
X55796Y-21066D01*
X55787Y-21076D01*
X55768Y-21085D01*
X55749Y-21085D01*
X55730Y-21076D01*
X55720Y-21066D01*
X55710Y-21047D01*
X55710Y-21000D01*
X55720Y-20971D01*
X55777Y-20914D02*
X55777Y-20838D01*
X55710Y-20885D02*
X55882Y-20885D01*
X55901Y-20876D01*
X55910Y-20857D01*
X55910Y-20838D01*
X55910Y-20685D02*
X55806Y-20685D01*
X55787Y-20695D01*
X55777Y-20714D01*
X55777Y-20752D01*
X55787Y-20771D01*
X55901Y-20685D02*
X55910Y-20704D01*
X55910Y-20752D01*
X55901Y-20771D01*
X55882Y-20780D01*
X55863Y-20780D01*
X55844Y-20771D01*
X55834Y-20752D01*
X55834Y-20704D01*
X55825Y-20685D01*
X55777Y-20619D02*
X55777Y-20542D01*
X55710Y-20590D02*
X55882Y-20590D01*
X55901Y-20580D01*
X55910Y-20561D01*
X55910Y-20542D01*
X55777Y-20390D02*
X55910Y-20390D01*
X55777Y-20476D02*
X55882Y-20476D01*
X55901Y-20466D01*
X55910Y-20447D01*
X55910Y-20419D01*
X55901Y-20399D01*
X55891Y-20390D01*
X55901Y-20304D02*
X55910Y-20285D01*
X55910Y-20247D01*
X55901Y-20228D01*
X55882Y-20219D01*
X55872Y-20219D01*
X55853Y-20228D01*
X55844Y-20247D01*
X55844Y-20276D01*
X55834Y-20295D01*
X55815Y-20304D01*
X55806Y-20304D01*
X55787Y-20295D01*
X55777Y-20276D01*
X55777Y-20247D01*
X55787Y-20228D01*
X56240Y-22004D02*
X56040Y-22004D01*
X56107Y-21909D02*
X56240Y-21909D01*
X56126Y-21909D02*
X56117Y-21900D01*
X56107Y-21880D01*
X56107Y-21852D01*
X56117Y-21833D01*
X56136Y-21823D01*
X56240Y-21823D01*
X56240Y-21642D02*
X56040Y-21642D01*
X56231Y-21642D02*
X56240Y-21661D01*
X56240Y-21700D01*
X56231Y-21719D01*
X56221Y-21728D01*
X56202Y-21738D01*
X56145Y-21738D01*
X56126Y-21728D01*
X56117Y-21719D01*
X56107Y-21700D01*
X56107Y-21661D01*
X56117Y-21642D01*
X56240Y-21547D02*
X56107Y-21547D01*
X56040Y-21547D02*
X56050Y-21557D01*
X56060Y-21547D01*
X56050Y-21538D01*
X56040Y-21547D01*
X56060Y-21547D01*
X56231Y-21366D02*
X56240Y-21385D01*
X56240Y-21423D01*
X56231Y-21442D01*
X56221Y-21452D01*
X56202Y-21461D01*
X56145Y-21461D01*
X56126Y-21452D01*
X56117Y-21442D01*
X56107Y-21423D01*
X56107Y-21385D01*
X56117Y-21366D01*
X56240Y-21195D02*
X56136Y-21195D01*
X56117Y-21204D01*
X56107Y-21223D01*
X56107Y-21261D01*
X56117Y-21280D01*
X56231Y-21195D02*
X56240Y-21214D01*
X56240Y-21261D01*
X56231Y-21280D01*
X56212Y-21290D01*
X56193Y-21290D01*
X56174Y-21280D01*
X56164Y-21261D01*
X56164Y-21214D01*
X56155Y-21195D01*
X56107Y-21128D02*
X56107Y-21052D01*
X56040Y-21100D02*
X56212Y-21100D01*
X56231Y-21090D01*
X56240Y-21071D01*
X56240Y-21052D01*
X56240Y-20957D02*
X56231Y-20976D01*
X56221Y-20985D01*
X56202Y-20995D01*
X56145Y-20995D01*
X56126Y-20985D01*
X56117Y-20976D01*
X56107Y-20957D01*
X56107Y-20928D01*
X56117Y-20909D01*
X56126Y-20900D01*
X56145Y-20890D01*
X56202Y-20890D01*
X56221Y-20900D01*
X56231Y-20909D01*
X56240Y-20928D01*
X56240Y-20957D01*
X56240Y-20804D02*
X56107Y-20804D01*
X56145Y-20804D02*
X56126Y-20795D01*
X56117Y-20785D01*
X56107Y-20766D01*
X56107Y-20747D01*
X56107Y-20547D02*
X56240Y-20500D01*
X56107Y-20452D01*
X56040Y-20338D02*
X56040Y-20319D01*
X56050Y-20300D01*
X56060Y-20290D01*
X56079Y-20280D01*
X56117Y-20271D01*
X56164Y-20271D01*
X56202Y-20280D01*
X56221Y-20290D01*
X56231Y-20300D01*
X56240Y-20319D01*
X56240Y-20338D01*
X56231Y-20357D01*
X56221Y-20366D01*
X56202Y-20376D01*
X56164Y-20385D01*
X56117Y-20385D01*
X56079Y-20376D01*
X56060Y-20366D01*
X56050Y-20357D01*
X56040Y-20338D01*
X56221Y-20185D02*
X56231Y-20176D01*
X56240Y-20185D01*
X56231Y-20195D01*
X56221Y-20185D01*
X56240Y-20185D01*
X56240Y-19985D02*
X56240Y-20099D01*
X56240Y-20042D02*
X56040Y-20042D01*
X56069Y-20061D01*
X56088Y-20080D01*
X56098Y-20099D01*
G54D12*
X53812Y-21434D02*
X54187Y-21434D01*
X53887Y-21546D02*
X54112Y-21546D01*
X54000Y-21265D02*
X54000Y-21434D01*
X54037Y-21659D02*
X53962Y-21659D01*
G54D11*
X56000Y-27750D02*
G75*
G03X56000Y-27750I-1000J0D01*
G74*
G01*
X53500Y-26250D02*
X56500Y-26250D01*
X56500Y-26250D02*
X56500Y-29250D01*
X56500Y-29250D02*
X53500Y-29250D01*
X53500Y-26250D02*
X53500Y-29250D01*
G54D13*
X52250Y-25250D02*
X52050Y-25250D01*
X49250Y-25250D02*
X49450Y-25250D01*
X49450Y-25250D02*
X49450Y-25650D01*
X49450Y-25650D02*
X52050Y-25650D01*
X52050Y-25650D02*
X52050Y-24850D01*
X52050Y-24850D02*
X49450Y-24850D01*
X49450Y-24850D02*
X49450Y-25250D01*
X52050Y-25450D02*
X51850Y-25650D01*
X52250Y-24000D02*
X52050Y-24000D01*
X49250Y-24000D02*
X49450Y-24000D01*
X49450Y-24000D02*
X49450Y-24400D01*
X49450Y-24400D02*
X52050Y-24400D01*
X52050Y-24400D02*
X52050Y-23600D01*
X52050Y-23600D02*
X49450Y-23600D01*
X49450Y-23600D02*
X49450Y-24000D01*
X52050Y-24200D02*
X51850Y-24400D01*
X52250Y-26500D02*
X52050Y-26500D01*
X49250Y-26500D02*
X49450Y-26500D01*
X49450Y-26500D02*
X49450Y-26900D01*
X49450Y-26900D02*
X52050Y-26900D01*
X52050Y-26900D02*
X52050Y-26100D01*
X52050Y-26100D02*
X49450Y-26100D01*
X49450Y-26100D02*
X49450Y-26500D01*
X52050Y-26700D02*
X51850Y-26900D01*
X52250Y-27750D02*
X52050Y-27750D01*
X49250Y-27750D02*
X49450Y-27750D01*
X49450Y-27750D02*
X49450Y-28150D01*
X49450Y-28150D02*
X52050Y-28150D01*
X52050Y-28150D02*
X52050Y-27350D01*
X52050Y-27350D02*
X49450Y-27350D01*
X49450Y-27350D02*
X49450Y-27750D01*
X52050Y-27950D02*
X51850Y-28150D01*
G54D14*
X54750Y-21000D02*
G75*
G03X54750Y-21000I-1000J0D01*
G74*
G01*
G54D15*
X51550Y-20400D02*
X49950Y-20400D01*
X49950Y-20400D02*
X50100Y-20350D01*
X50100Y-20350D02*
X51400Y-20350D01*
X51400Y-20350D02*
X51550Y-20400D01*
X52350Y-21750D02*
G75*
G03X52350Y-21750I-1600J0D01*
G74*
G01*
X51100Y-20600D02*
X51450Y-20600D01*
X51150Y-20200D02*
X50350Y-20200D01*
X50350Y-20250D02*
X51150Y-20250D01*
X50150Y-20300D02*
X51350Y-20300D01*
X52750Y-23500D02*
X53250Y-23500D01*
X53250Y-23500D02*
X53250Y-24500D01*
X53250Y-24500D02*
X52750Y-24500D01*
X52750Y-23000D02*
X56750Y-23000D01*
X56750Y-23000D02*
X56750Y-25000D01*
X56750Y-25000D02*
X52750Y-25000D01*
X52750Y-25000D02*
X52750Y-23000D01*
G54D11*
X49566Y-29000D02*
G75*
G03X49566Y-29000I-316J0D01*
G74*
G01*
X50816Y-29000D02*
G75*
G03X50816Y-29000I-316J0D01*
G74*
G01*
M02*
