G04 (created by PCBNEW (2013-mar-25)-stable) date Monday, December 09, 2013 'PMt' 08:04:31 PM*
%MOIN*%
G04 Gerber Fmt 3.4, Leading zero omitted, Abs format*
%FSLAX34Y34*%
G01*
G70*
G90*
G04 APERTURE LIST*
%ADD10C,0.006*%
%ADD11C,0.00984252*%
%ADD12C,0.0059252*%
%ADD13C,0.015*%
G04 APERTURE END LIST*
G54D10*
G54D11*
X44659Y-21459D02*
X44265Y-21459D01*
X44265Y-21609D01*
X44284Y-21647D01*
X44303Y-21665D01*
X44340Y-21684D01*
X44396Y-21684D01*
X44434Y-21665D01*
X44453Y-21647D01*
X44471Y-21609D01*
X44471Y-21459D01*
X44659Y-22022D02*
X44453Y-22022D01*
X44415Y-22003D01*
X44396Y-21965D01*
X44396Y-21890D01*
X44415Y-21853D01*
X44640Y-22022D02*
X44659Y-21984D01*
X44659Y-21890D01*
X44640Y-21853D01*
X44603Y-21834D01*
X44565Y-21834D01*
X44528Y-21853D01*
X44509Y-21890D01*
X44509Y-21984D01*
X44490Y-22022D01*
X44396Y-22153D02*
X44396Y-22303D01*
X44265Y-22209D02*
X44603Y-22209D01*
X44640Y-22228D01*
X44659Y-22265D01*
X44659Y-22303D01*
X44659Y-22490D02*
X44640Y-22453D01*
X44621Y-22434D01*
X44584Y-22415D01*
X44471Y-22415D01*
X44434Y-22434D01*
X44415Y-22453D01*
X44396Y-22490D01*
X44396Y-22546D01*
X44415Y-22584D01*
X44434Y-22603D01*
X44471Y-22621D01*
X44584Y-22621D01*
X44621Y-22603D01*
X44640Y-22584D01*
X44659Y-22546D01*
X44659Y-22490D01*
X44659Y-23409D02*
X44659Y-23390D01*
X44640Y-23353D01*
X44584Y-23296D01*
X44471Y-23203D01*
X44415Y-23165D01*
X44359Y-23146D01*
X44321Y-23146D01*
X44284Y-23165D01*
X44265Y-23203D01*
X44265Y-23221D01*
X44284Y-23259D01*
X44321Y-23278D01*
X44340Y-23278D01*
X44378Y-23259D01*
X44396Y-23240D01*
X44471Y-23128D01*
X44490Y-23109D01*
X44528Y-23090D01*
X44584Y-23090D01*
X44621Y-23109D01*
X44640Y-23128D01*
X44659Y-23165D01*
X44659Y-23221D01*
X44640Y-23259D01*
X44621Y-23278D01*
X44546Y-23334D01*
X44490Y-23353D01*
X44453Y-23353D01*
X44265Y-23840D02*
X44659Y-23934D01*
X44378Y-24009D01*
X44659Y-24084D01*
X44265Y-24177D01*
X44659Y-24327D02*
X44396Y-24327D01*
X44265Y-24327D02*
X44284Y-24309D01*
X44303Y-24327D01*
X44284Y-24346D01*
X44265Y-24327D01*
X44303Y-24327D01*
X44659Y-24571D02*
X44640Y-24534D01*
X44603Y-24515D01*
X44265Y-24515D01*
X44659Y-24777D02*
X44640Y-24740D01*
X44603Y-24721D01*
X44265Y-24721D01*
X45308Y-20615D02*
X45308Y-20428D01*
X44915Y-20428D01*
X45102Y-20747D02*
X45102Y-20878D01*
X45308Y-20934D02*
X45308Y-20747D01*
X44915Y-20747D01*
X44915Y-20934D01*
X45308Y-21103D02*
X44915Y-21103D01*
X44915Y-21197D01*
X44934Y-21253D01*
X44971Y-21290D01*
X45008Y-21309D01*
X45083Y-21328D01*
X45140Y-21328D01*
X45215Y-21309D01*
X45252Y-21290D01*
X45290Y-21253D01*
X45308Y-21197D01*
X45308Y-21103D01*
X45290Y-21478D02*
X45308Y-21534D01*
X45308Y-21628D01*
X45290Y-21665D01*
X45271Y-21684D01*
X45233Y-21703D01*
X45196Y-21703D01*
X45158Y-21684D01*
X45140Y-21665D01*
X45121Y-21628D01*
X45102Y-21553D01*
X45083Y-21515D01*
X45065Y-21497D01*
X45027Y-21478D01*
X44990Y-21478D01*
X44952Y-21497D01*
X44934Y-21515D01*
X44915Y-21553D01*
X44915Y-21647D01*
X44934Y-21703D01*
X45046Y-21815D02*
X45046Y-21965D01*
X44915Y-21872D02*
X45252Y-21872D01*
X45290Y-21890D01*
X45308Y-21928D01*
X45308Y-21965D01*
X45308Y-22265D02*
X45102Y-22265D01*
X45065Y-22246D01*
X45046Y-22209D01*
X45046Y-22134D01*
X45065Y-22097D01*
X45290Y-22265D02*
X45308Y-22228D01*
X45308Y-22134D01*
X45290Y-22097D01*
X45252Y-22078D01*
X45215Y-22078D01*
X45177Y-22097D01*
X45158Y-22134D01*
X45158Y-22228D01*
X45140Y-22265D01*
X45046Y-22396D02*
X45046Y-22546D01*
X44915Y-22453D02*
X45252Y-22453D01*
X45290Y-22471D01*
X45308Y-22509D01*
X45308Y-22546D01*
X45046Y-22846D02*
X45308Y-22846D01*
X45046Y-22678D02*
X45252Y-22678D01*
X45290Y-22696D01*
X45308Y-22734D01*
X45308Y-22790D01*
X45290Y-22828D01*
X45271Y-22846D01*
X45290Y-23015D02*
X45308Y-23053D01*
X45308Y-23128D01*
X45290Y-23165D01*
X45252Y-23184D01*
X45233Y-23184D01*
X45196Y-23165D01*
X45177Y-23128D01*
X45177Y-23071D01*
X45158Y-23034D01*
X45121Y-23015D01*
X45102Y-23015D01*
X45065Y-23034D01*
X45046Y-23071D01*
X45046Y-23128D01*
X45065Y-23165D01*
X45308Y-23353D02*
X44915Y-23353D01*
X45046Y-23540D02*
X45308Y-23540D01*
X45083Y-23540D02*
X45065Y-23559D01*
X45046Y-23596D01*
X45046Y-23653D01*
X45065Y-23690D01*
X45102Y-23709D01*
X45308Y-23709D01*
X45308Y-24065D02*
X44915Y-24065D01*
X45290Y-24065D02*
X45308Y-24028D01*
X45308Y-23953D01*
X45290Y-23915D01*
X45271Y-23896D01*
X45233Y-23878D01*
X45121Y-23878D01*
X45083Y-23896D01*
X45065Y-23915D01*
X45046Y-23953D01*
X45046Y-24028D01*
X45065Y-24065D01*
X45308Y-24252D02*
X45046Y-24252D01*
X44915Y-24252D02*
X44934Y-24234D01*
X44952Y-24252D01*
X44934Y-24271D01*
X44915Y-24252D01*
X44952Y-24252D01*
X45290Y-24609D02*
X45308Y-24571D01*
X45308Y-24496D01*
X45290Y-24459D01*
X45271Y-24440D01*
X45233Y-24421D01*
X45121Y-24421D01*
X45083Y-24440D01*
X45065Y-24459D01*
X45046Y-24496D01*
X45046Y-24571D01*
X45065Y-24609D01*
X45308Y-24946D02*
X45102Y-24946D01*
X45065Y-24927D01*
X45046Y-24890D01*
X45046Y-24815D01*
X45065Y-24777D01*
X45290Y-24946D02*
X45308Y-24909D01*
X45308Y-24815D01*
X45290Y-24777D01*
X45252Y-24759D01*
X45215Y-24759D01*
X45177Y-24777D01*
X45158Y-24815D01*
X45158Y-24909D01*
X45140Y-24946D01*
X45046Y-25077D02*
X45046Y-25227D01*
X44915Y-25134D02*
X45252Y-25134D01*
X45290Y-25152D01*
X45308Y-25190D01*
X45308Y-25227D01*
X45308Y-25415D02*
X45290Y-25377D01*
X45271Y-25359D01*
X45233Y-25340D01*
X45121Y-25340D01*
X45083Y-25359D01*
X45065Y-25377D01*
X45046Y-25415D01*
X45046Y-25471D01*
X45065Y-25509D01*
X45083Y-25527D01*
X45121Y-25546D01*
X45233Y-25546D01*
X45271Y-25527D01*
X45290Y-25509D01*
X45308Y-25471D01*
X45308Y-25415D01*
X45308Y-25715D02*
X45046Y-25715D01*
X45121Y-25715D02*
X45083Y-25734D01*
X45065Y-25752D01*
X45046Y-25790D01*
X45046Y-25827D01*
X45696Y-22537D02*
X45958Y-22631D01*
X45696Y-22725D01*
X45958Y-23081D02*
X45958Y-22856D01*
X45958Y-22968D02*
X45564Y-22968D01*
X45621Y-22931D01*
X45658Y-22893D01*
X45677Y-22856D01*
X45921Y-23249D02*
X45939Y-23268D01*
X45958Y-23249D01*
X45939Y-23231D01*
X45921Y-23249D01*
X45958Y-23249D01*
X45564Y-23399D02*
X45564Y-23643D01*
X45714Y-23512D01*
X45714Y-23568D01*
X45733Y-23606D01*
X45752Y-23624D01*
X45789Y-23643D01*
X45883Y-23643D01*
X45921Y-23624D01*
X45939Y-23606D01*
X45958Y-23568D01*
X45958Y-23456D01*
X45939Y-23418D01*
X45921Y-23399D01*
G54D12*
X44812Y-28560D02*
X44587Y-28560D01*
X44767Y-28628D02*
X44632Y-28628D01*
X44699Y-28458D02*
X44699Y-28560D01*
X44677Y-28695D02*
X44722Y-28695D01*
G54D13*
X46000Y-28000D02*
G75*
G03X46000Y-28000I-1000J0D01*
G74*
G01*
M02*
