G04 (created by PCBNEW (2013-mar-25)-stable) date Monday, December 09, 2013 'PMt' 08:04:31 PM*
%MOIN*%
G04 Gerber Fmt 3.4, Leading zero omitted, Abs format*
%FSLAX34Y34*%
G01*
G70*
G90*
G04 APERTURE LIST*
%ADD10C,0.006*%
%ADD11C,0.06*%
%ADD12C,0.13*%
%ADD13C,0.055*%
%ADD14R,0.055X0.055*%
%ADD15C,0.035*%
%ADD16C,0.01*%
G04 APERTURE END LIST*
G54D10*
G54D11*
X43700Y-28000D03*
X44500Y-28000D03*
X45500Y-28000D03*
X46300Y-28000D03*
X44400Y-18600D03*
X45600Y-18600D03*
G54D12*
X45000Y-32300D03*
G54D13*
X46500Y-31000D03*
X43500Y-31000D03*
X43500Y-35800D03*
X43500Y-33800D03*
X46500Y-35800D03*
X46500Y-33800D03*
X46500Y-29200D03*
X43500Y-29200D03*
X46500Y-30100D03*
X43500Y-30100D03*
X43500Y-22600D03*
X46500Y-22600D03*
G54D14*
X43500Y-23700D03*
G54D13*
X43500Y-24700D03*
X43500Y-25700D03*
X43500Y-26700D03*
X46500Y-26700D03*
X46500Y-25700D03*
X46500Y-24700D03*
X46500Y-23700D03*
X46500Y-19500D03*
X46500Y-21500D03*
X43500Y-19500D03*
X43500Y-21500D03*
G54D15*
X46000Y-31900D03*
X44800Y-26000D03*
X45300Y-26500D03*
X43700Y-32300D03*
X46400Y-32400D03*
X46400Y-27300D03*
G54D16*
X46000Y-31900D02*
X45800Y-32100D01*
X45800Y-32100D02*
X45800Y-32700D01*
X45800Y-32700D02*
X45700Y-32800D01*
X45700Y-32800D02*
X45700Y-32900D01*
X45700Y-32900D02*
X43500Y-35100D01*
X43500Y-35100D02*
X43500Y-35800D01*
X43500Y-26700D02*
X44300Y-25900D01*
X44300Y-25900D02*
X44300Y-21900D01*
X44300Y-21900D02*
X44000Y-21600D01*
X44000Y-21600D02*
X44000Y-21300D01*
X44000Y-21300D02*
X43900Y-21200D01*
X43900Y-21200D02*
X43900Y-21100D01*
X43900Y-21100D02*
X43500Y-20700D01*
X43500Y-20700D02*
X43500Y-19500D01*
X44500Y-28000D02*
X43500Y-27000D01*
X43500Y-27000D02*
X43500Y-26700D01*
X43700Y-28000D02*
X43500Y-28200D01*
X43500Y-28200D02*
X43500Y-29200D01*
X43500Y-22600D02*
X43500Y-23700D01*
X46500Y-22600D02*
X45600Y-21700D01*
X45600Y-21700D02*
X45600Y-18600D01*
X46500Y-22600D02*
X46500Y-23700D01*
X43500Y-33800D02*
X44200Y-33100D01*
X44200Y-33100D02*
X44200Y-31900D01*
X44200Y-31900D02*
X44300Y-31800D01*
X44300Y-31800D02*
X44300Y-31700D01*
X44300Y-31700D02*
X45000Y-31000D01*
X45000Y-31000D02*
X45000Y-27700D01*
X45000Y-27700D02*
X44800Y-27500D01*
X44800Y-27500D02*
X44800Y-26000D01*
X45300Y-26500D02*
X45500Y-26700D01*
X45500Y-26700D02*
X45500Y-28000D01*
X43500Y-31000D02*
X43700Y-31200D01*
X43700Y-31200D02*
X43700Y-32300D01*
X46400Y-32400D02*
X46400Y-31700D01*
X46400Y-31700D02*
X45700Y-31000D01*
X45700Y-31000D02*
X45700Y-28800D01*
X45700Y-28800D02*
X46300Y-28200D01*
X46300Y-28200D02*
X46300Y-28000D01*
X43500Y-21500D02*
X44000Y-22000D01*
X44000Y-22000D02*
X44000Y-24900D01*
X44000Y-24900D02*
X43900Y-25000D01*
X43900Y-25000D02*
X43900Y-25100D01*
X43900Y-25100D02*
X43500Y-25500D01*
X43500Y-25500D02*
X43500Y-25700D01*
X45700Y-25500D02*
X46500Y-24700D01*
X45700Y-26600D02*
X45700Y-25500D01*
X46400Y-27300D02*
X45700Y-26600D01*
X46500Y-26700D02*
X46800Y-27000D01*
X46800Y-27000D02*
X46800Y-28300D01*
X46800Y-28300D02*
X46600Y-28500D01*
X46600Y-28500D02*
X46400Y-28500D01*
X46400Y-28500D02*
X46000Y-28900D01*
X46000Y-28900D02*
X46000Y-30300D01*
X46000Y-30300D02*
X46100Y-30400D01*
X46100Y-30400D02*
X46100Y-30500D01*
X46100Y-30500D02*
X46500Y-30900D01*
X46500Y-30900D02*
X46500Y-31000D01*
M02*
