G04 MADE WITH FRITZING*
G04 WWW.FRITZING.ORG*
G04 DOUBLE SIDED*
G04 HOLES PLATED*
G04 CONTOUR ON CENTER OF CONTOUR VECTOR*
%ASAXBY*%
%FSLAX23Y23*%
%MOIN*%
%OFA0B0*%
%SFA1.0B1.0*%
%ADD10C,0.085000*%
%ADD11C,0.075000*%
%ADD12C,0.088000*%
%ADD13C,0.078000*%
%ADD14C,0.049370*%
%ADD15R,0.085000X0.085000*%
%ADD16R,0.088000X0.088000*%
%ADD17C,0.030000*%
%LNMASK0*%
G90*
G70*
G54D10*
X155Y850D03*
X155Y950D03*
G54D11*
X618Y350D03*
X697Y350D03*
X776Y350D03*
X855Y350D03*
G54D10*
X455Y350D03*
X55Y350D03*
X455Y250D03*
X55Y250D03*
X455Y50D03*
X55Y50D03*
X455Y150D03*
X55Y150D03*
G54D12*
X455Y950D03*
X355Y950D03*
G54D13*
X455Y750D03*
X355Y750D03*
X255Y750D03*
X155Y750D03*
X155Y450D03*
X255Y450D03*
X355Y450D03*
X455Y450D03*
G54D14*
X691Y745D03*
G54D15*
X455Y350D03*
G54D16*
X455Y950D03*
G54D17*
G36*
X127Y878D02*
X182Y878D01*
X182Y823D01*
X127Y823D01*
X127Y878D01*
G37*
D02*
G36*
X427Y223D02*
X427Y278D01*
X482Y278D01*
X482Y223D01*
X427Y223D01*
G37*
D02*
G36*
X427Y23D02*
X427Y78D01*
X482Y78D01*
X482Y23D01*
X427Y23D01*
G37*
D02*
G36*
X427Y123D02*
X427Y178D01*
X482Y178D01*
X482Y123D01*
X427Y123D01*
G37*
D02*
G04 End of Mask0*
M02*