M48
INCH
T10C0.035000
T11C0.025000
T12C0.032000
T13C0.038000
%
T10
X002712Y008759
X002712Y004759
X001712Y008759
X001712Y004759
X003712Y008759
X003712Y004759
X004712Y017759
X004712Y013759
X002712Y015759
X002712Y014759
T11
X003712Y002759
X002924Y002759
X002138Y002759
X001350Y002759
T12
X001712Y012759
X002712Y012759
X003712Y012759
X004712Y012759
X004712Y009759
X003712Y009759
X002712Y009759
X001712Y009759
T13
X003074Y018759
X004074Y018759
T00
M30
